<?xml version="1.0" encoding="UTF-8" standalone="no"?>
<svg
   xmlns:dc="http://purl.org/dc/elements/1.1/"
   xmlns:cc="http://creativecommons.org/ns#"
   xmlns:rdf="http://www.w3.org/1999/02/22-rdf-syntax-ns#"
   xmlns:svg="http://www.w3.org/2000/svg"
   xmlns="http://www.w3.org/2000/svg"
   viewBox="0 0 1279.6801 720"
   height="720"
   width="1279.6801"
   xml:space="preserve"
   id="svg2"
   version="1.1"><metadata
     id="metadata8"><rdf:RDF><cc:Work
         rdf:about=""><dc:format>image/svg+xml</dc:format><dc:type
           rdf:resource="http://purl.org/dc/dcmitype/StillImage" /></cc:Work></rdf:RDF></metadata><defs
     id="defs6"><clipPath
       id="clipPath18"
       clipPathUnits="userSpaceOnUse"><path
         id="path16"
         d="M 0,540 H 959.76 V 0 H 0 Z" /></clipPath></defs><g
     transform="matrix(1.3333333,0,0,-1.3333333,0,720)"
     id="g10"><g
       id="g12"><g
         clip-path="url(#clipPath18)"
         id="g14"><g
           transform="translate(479.6538,416.5836)"
           id="g20"><path
             id="path22"
             style="fill:#44babf;fill-opacity:1;fill-rule:nonzero;stroke:none"
             d="m 0,0 c -2.612,0 -5.223,-0.672 -7.552,-2.017 l -41.687,-24.067 c -4.658,-2.69 -7.552,-7.702 -7.552,-13.081 v -48.136 c 0,-5.379 2.894,-10.39 7.552,-13.08 l 41.687,-24.068 c 4.659,-2.688 10.448,-2.69 15.104,0 l 41.687,24.068 c 4.658,2.69 7.553,7.701 7.553,13.08 v 48.136 c 0,5.379 -2.895,10.391 -7.553,13.081 L 7.552,-2.017 C 5.223,-0.672 2.611,0 0,0 m 0,-134.877 c -4.066,0 -8.133,1.047 -11.759,3.141 l -41.688,24.068 c -7.253,4.188 -11.759,11.991 -11.759,20.367 v 48.136 c 0,8.375 4.506,16.18 11.759,20.368 l 41.688,24.068 c 7.253,4.189 16.265,4.189 23.518,0 l 41.687,-24.068 c 7.254,-4.188 11.76,-11.993 11.76,-20.368 v -48.136 c 0,-8.376 -4.506,-16.18 -11.76,-20.367 L 11.759,-131.736 C 8.132,-133.83 4.066,-134.877 0,-134.877" /></g><g
           transform="translate(495.959,325.7222)"
           id="g24"><path
             id="path26"
             style="fill:#d6b038;fill-opacity:1;fill-rule:nonzero;stroke:none"
             d="m 0,0 v 23.633 c -0.182,-1.15 -0.488,-2.263 -0.953,-3.33 -0.766,-1.755 -1.801,-3.297 -3.106,-4.624 -0.703,-0.716 -1.474,-1.346 -2.308,-1.897 -0.55,-0.362 -0.857,-0.998 -0.857,-1.656 V -5.121 c 0,-1.088 0.882,-1.969 1.969,-1.969 H 18.22 c 1.087,0 1.968,0.881 1.968,1.969 v 3.152 C 20.188,-0.881 19.307,0 18.22,0 Z" /></g><g
           transform="translate(491.4619,367.3004)"
           id="g28"><path
             id="path30"
             style="fill:#d6b038;fill-opacity:1;fill-rule:nonzero;stroke:none"
             d="m 0,0 c -0.365,-0.42 -0.734,-0.811 -1.107,-1.173 -0.368,-0.356 -0.277,-0.944 0.15,-1.227 1.566,-1.039 2.853,-2.422 3.859,-4.15 0.822,-1.411 1.339,-2.965 1.595,-4.641 V 2.232 c 0,0.437 -0.353,0.79 -0.789,0.79 H 2.003 C 1.878,2.767 1.761,2.503 1.62,2.261 1.146,1.45 0.607,0.696 0,0" /></g><g
           transform="translate(486.9629,360.0845)"
           id="g32"><path
             id="path34"
             style="fill:#d6b038;fill-opacity:1;fill-rule:nonzero;stroke:none"
             d="m 0,0 c -1.193,2.048 -2.779,3.611 -4.76,4.692 0.63,0.54 1.249,1.158 1.857,1.857 0.608,0.697 1.147,1.451 1.62,2.262 0.141,0.242 0.259,0.505 0.384,0.761 0.294,0.601 0.558,1.227 0.764,1.906 0.292,0.967 0.439,2.013 0.439,3.138 0,1.847 -0.349,3.579 -1.046,5.2 -0.699,1.62 -1.655,3.038 -2.87,4.253 -1.215,1.216 -2.633,2.171 -4.254,2.869 -1.62,0.699 -3.331,1.046 -5.131,1.046 h -24.875 c -0.014,0 -0.026,-0.003 -0.04,-0.004 h -1.184 c -1.271,0 -2.302,-1.03 -2.302,-2.301 V -1.236 c 0,-1.272 1.031,-2.303 2.302,-2.303 h 1.613 c 1.272,0 2.303,1.031 2.303,2.303 v 21.319 c 0,0.859 0.697,1.556 1.556,1.556 h 19.412 c 1.98,0 3.646,-0.675 4.996,-2.027 1.35,-1.349 2.026,-3.036 2.026,-5.063 0,-0.945 -0.181,-1.846 -0.54,-2.699 -0.362,-0.857 -0.856,-1.612 -1.486,-2.262 -0.631,-0.653 -1.373,-1.159 -2.228,-1.52 -0.855,-0.361 -1.778,-0.54 -2.768,-0.54 h -14.47 c -1.214,0 -2.198,-0.984 -2.198,-2.198 V 3.379 c 0,-1.214 0.984,-2.198 2.198,-2.198 h 14.808 c 1.124,0 2.183,-0.213 3.173,-0.641 0.989,-0.429 1.856,-1.013 2.599,-1.755 0.743,-0.743 1.328,-1.61 1.755,-2.6 0.428,-0.991 0.642,-2.048 0.642,-3.173 0,-1.08 -0.214,-2.116 -0.642,-3.106 -0.427,-0.99 -1.012,-1.857 -1.755,-2.599 -0.743,-0.743 -1.61,-1.34 -2.599,-1.788 -0.99,-0.453 -2.049,-0.677 -3.173,-0.677 h -15.829 c -1.214,0 -2.198,-0.985 -2.198,-2.198 v -1.951 c 0,-1.214 0.984,-2.197 2.198,-2.197 h 17.044 c 1.98,0 3.848,0.381 5.604,1.148 0.342,0.149 0.673,0.311 0.997,0.484 1.146,0.609 2.225,1.351 3.17,2.241 1.506,1.417 2.683,3.098 3.53,5.039 0.464,1.068 0.77,2.181 0.953,3.33 v 4.62 C 1.339,-2.965 0.821,-1.411 0,0" /></g><g
           transform="translate(335.9756,213.1314)"
           id="g36"><path
             id="path38"
             style="fill:#44babf;fill-opacity:1;fill-rule:nonzero;stroke:none"
             d="m 0,0 c 2.797,0 5.164,2.295 5.164,5.234 0,2.87 -3.084,5.021 -5.881,5.021 H -6.526 L -6.526,0 Z m -0.932,19.578 c 2.725,0 5.02,2.295 5.02,5.164 0,2.868 -2.295,4.876 -5.02,4.876 h -5.594 v -10.04 z m -16.782,19.005 c 0,0.717 0.574,1.362 1.363,1.362 h 16.71 c 8.462,0 15.419,-5.808 15.419,-13.339 0,-5.522 -4.948,-9.538 -8.32,-11.331 3.802,-1.578 9.611,-5.091 9.611,-11.69 0,-8.032 -7.1,-13.841 -15.634,-13.841 h -17.786 c -0.789,0 -1.363,0.646 -1.363,1.362 z" /></g><g
           transform="translate(381.3755,213.6334)"
           id="g40"><path
             id="path42"
             style="fill:#44babf;fill-opacity:1;fill-rule:nonzero;stroke:none"
             d="M 0,0 C 7.889,0 14.343,6.454 14.343,14.271 14.343,22.16 7.889,28.687 0,28.687 -7.817,28.687 -14.271,22.16 -14.271,14.271 -14.271,6.454 -7.817,0 0,0 m 0,40.161 c 14.343,0 25.818,-11.547 25.818,-25.89 0,-14.343 -11.475,-25.746 -25.818,-25.746 -14.343,0 -25.746,11.403 -25.746,25.746 0,14.343 11.403,25.89 25.746,25.89" /></g><g
           transform="translate(431.0771,213.4898)"
           id="g44"><path
             id="path46"
             style="fill:#44babf;fill-opacity:1;fill-rule:nonzero;stroke:none"
             d="M 0,0 C 8.104,0 13.984,6.383 13.984,14.559 13.984,22.662 8.104,29.045 0,29.045 H -6.885 V 0 Z m -18.073,38.225 c 0,0.716 0.574,1.362 1.291,1.362 H 0.717 c 13.841,0 25.173,-11.259 25.173,-25.028 0,-13.913 -11.332,-25.173 -25.173,-25.173 h -17.499 c -0.717,0 -1.291,0.645 -1.291,1.362 z" /></g><g
           transform="translate(469.9492,227.0435)"
           id="g48"><path
             id="path50"
             style="fill:#44babf;fill-opacity:1;fill-rule:nonzero;stroke:none"
             d="m 0,0 -15.849,23.954 c -0.574,0.932 0,2.079 1.147,2.079 h 9.324 c 0.573,0 0.932,-0.358 1.147,-0.645 l 9.968,-14.701 9.968,14.701 c 0.216,0.287 0.502,0.645 1.148,0.645 h 9.323 c 1.147,0 1.721,-1.147 1.147,-2.079 L 11.259,0.072 v -22.878 c 0,-0.716 -0.645,-1.362 -1.362,-1.362 H 1.363 C 0.574,-24.168 0,-23.522 0,-22.806 Z" /></g><g
           transform="translate(528.9043,251.7144)"
           id="g52"><path
             id="path54"
             style="fill:#d6b038;fill-opacity:1;fill-rule:nonzero;stroke:none"
             d="m 0,0 c 0,0.717 0.573,1.362 1.362,1.362 h 8.534 c 0.717,0 1.363,-0.645 1.363,-1.362 v -38.297 h 17.068 c 0.789,0 1.363,-0.645 1.363,-1.362 v -7.818 c 0,-0.716 -0.574,-1.362 -1.363,-1.362 H 1.362 C 0.573,-48.839 0,-48.193 0,-47.477 Z" /></g><g
           transform="translate(623.5723,213.1314)"
           id="g56"><path
             id="path58"
             style="fill:#d6b038;fill-opacity:1;fill-rule:nonzero;stroke:none"
             d="m 0,0 c 2.797,0 5.163,2.295 5.163,5.234 0,2.87 -3.084,5.021 -5.881,5.021 H -6.526 V 0 Z m -0.933,19.578 c 2.726,0 5.021,2.295 5.021,5.164 0,2.868 -2.295,4.876 -5.021,4.876 h -5.593 v -10.04 z m -16.781,19.005 c 0,0.717 0.573,1.362 1.362,1.362 h 16.71 c 8.462,0 15.419,-5.808 15.419,-13.339 0,-5.522 -4.948,-9.538 -8.319,-11.331 3.801,-1.578 9.61,-5.091 9.61,-11.69 0,-8.032 -7.099,-13.841 -15.634,-13.841 h -17.786 c -0.789,0 -1.362,0.646 -1.362,1.362 z" /></g><g
           transform="translate(322.4595,188.7662)"
           id="g60"><path
             id="path62"
             style="fill:#211d1d;fill-opacity:1;fill-rule:nonzero;stroke:none"
             d="m 0,0 c 0.045,0.313 0.357,0.581 0.625,0.581 h 16.084 c 0.313,0 0.537,-0.268 0.492,-0.581 l -0.09,-0.759 C 17.067,-1.072 16.754,-1.34 16.441,-1.34 H 1.966 L 0.045,-14.922 h 12.688 c 0.313,0 0.537,-0.268 0.492,-0.581 l -0.09,-0.76 c -0.044,-0.312 -0.357,-0.58 -0.67,-0.58 H -0.224 l -1.921,-13.269 c -0.089,-0.403 -0.312,-0.581 -0.669,-0.581 h -0.939 c -0.312,0 -0.536,0.268 -0.491,0.581 z" /></g><g
           transform="translate(353.8696,159.5914)"
           id="g64"><path
             id="path66"
             style="fill:#211d1d;fill-opacity:1;fill-rule:nonzero;stroke:none"
             d="m 0,0 c 7.595,0 14.609,7.148 14.609,15.95 0,6.747 -4.378,12.286 -10.633,12.286 -7.64,0 -14.61,-7.237 -14.61,-16.084 C -10.634,5.451 -6.255,0 0,0 m 4.244,30.203 c 7.059,0 12.421,-6.256 12.421,-13.984 0,-10.098 -7.685,-18.184 -16.934,-18.184 -7.058,0 -12.419,6.165 -12.419,13.85 0,10.097 7.684,18.318 16.932,18.318" /></g><g
           transform="translate(389.0327,159.5914)"
           id="g68"><path
             id="path70"
             style="fill:#211d1d;fill-opacity:1;fill-rule:nonzero;stroke:none"
             d="m 0,0 c 7.596,0 14.61,7.148 14.61,15.95 0,6.747 -4.379,12.286 -10.633,12.286 -7.64,0 -14.61,-7.237 -14.61,-16.084 C -10.633,5.451 -6.255,0 0,0 m 4.245,30.203 c 7.059,0 12.42,-6.256 12.42,-13.984 0,-10.098 -7.685,-18.184 -16.933,-18.184 -7.059,0 -12.42,6.165 -12.42,13.85 0,10.097 7.684,18.318 16.933,18.318" /></g><g
           transform="translate(418.7456,159.9937)"
           id="g72"><path
             id="path74"
             style="fill:#211d1d;fill-opacity:1;fill-rule:nonzero;stroke:none"
             d="m 0,0 c 7.685,0 14.387,6.836 14.387,15.682 0,6.613 -4.245,11.751 -10.544,11.751 H -2.814 L -6.657,0 Z m -4.691,28.772 c 0.045,0.314 0.313,0.582 0.581,0.582 h 8.623 c 6.836,0 12.107,-6.122 12.107,-13.583 0,-9.74 -7.729,-17.692 -16.486,-17.692 h -8.622 c -0.269,0 -0.492,0.269 -0.448,0.581 z" /></g><g
           transform="translate(458.7793,171.7437)"
           id="g76"><path
             id="path78"
             style="fill:#d6b038;fill-opacity:1;fill-rule:nonzero;stroke:none"
             d="m 0,0 h -5.942 c -0.402,0 -0.715,0.402 -0.626,0.85 l 0.224,1.876 c 0.045,0.536 0.491,0.848 0.893,0.848 H 0.536 L 1.474,10.5 c 0.045,0.446 0.492,0.804 0.894,0.804 h 2.234 c 0.402,0 0.715,-0.358 0.67,-0.804 L 4.289,3.574 h 5.987 c 0.402,0 0.67,-0.401 0.625,-0.848 L 10.633,0.85 C 10.588,0.357 10.187,0 9.785,0 H 3.797 L 2.815,-6.835 C 2.77,-7.282 2.368,-7.64 1.966,-7.64 h -2.279 c -0.402,0 -0.67,0.358 -0.625,0.805 z" /></g><g
           transform="translate(491.7539,188.7662)"
           id="g80"><path
             id="path82"
             style="fill:#211d1d;fill-opacity:1;fill-rule:nonzero;stroke:none"
             d="M 0,0 C 0.044,0.313 0.357,0.581 0.625,0.581 H 16.709 C 17.021,0.581 17.245,0.313 17.2,0 L 17.111,-0.759 C 17.066,-1.072 16.754,-1.34 16.441,-1.34 H 1.965 L 0.044,-14.922 h 12.688 c 0.313,0 0.537,-0.268 0.493,-0.581 l -0.09,-0.76 c -0.045,-0.312 -0.358,-0.58 -0.67,-0.58 H -0.224 l -1.921,-13.269 c -0.089,-0.403 -0.313,-0.581 -0.67,-0.581 h -0.939 c -0.312,0 -0.535,0.268 -0.491,0.581 z" /></g><g
           transform="translate(515.6572,188.7662)"
           id="g84"><path
             id="path86"
             style="fill:#211d1d;fill-opacity:1;fill-rule:nonzero;stroke:none"
             d="M 0,0 C 0.044,0.313 0.268,0.581 0.67,0.581 H 1.653 C 1.966,0.581 2.188,0.313 2.145,0 l -4.201,-30.112 c -0.089,-0.358 -0.402,-0.581 -0.715,-0.581 h -0.937 c -0.313,0 -0.537,0.268 -0.492,0.581 z" /></g><g
           transform="translate(531.4736,187.4263)"
           id="g88"><path
             id="path90"
             style="fill:#211d1d;fill-opacity:1;fill-rule:nonzero;stroke:none"
             d="m 0,0 h -7.595 c -0.447,0 -0.492,0.268 -0.447,0.67 l 0.09,0.67 c 0.045,0.357 0.357,0.581 0.625,0.581 H 9.919 c 0.357,0 0.536,-0.268 0.491,-0.581 L 10.321,0.581 C 10.276,0.268 10.008,0 9.65,0 H 2.056 l -4.022,-28.772 c -0.045,-0.313 -0.312,-0.582 -0.76,-0.582 h -0.848 c -0.313,0 -0.536,0.269 -0.491,0.582 z" /></g><g
           transform="translate(547.8271,189.2135)"
           id="g92"><path
             id="path94"
             style="fill:#211d1d;fill-opacity:1;fill-rule:nonzero;stroke:none"
             d="M 0,0 C 0.09,0.357 0.357,0.581 0.715,0.581 H 1.386 L 16.71,-27.164 h 0.089 l 3.664,26.717 c 0.044,0.313 0.357,0.581 0.67,0.581 h 0.893 c 0.313,0 0.536,-0.268 0.492,-0.581 l -4.289,-30.56 c -0.044,-0.402 -0.402,-0.58 -0.759,-0.58 H 16.755 L 1.52,-3.753 H 1.475 L -2.278,-30.56 c -0.09,-0.581 -0.67,-0.581 -1.118,-0.581 h -0.402 c -0.312,0 -0.535,0.269 -0.491,0.581 z" /></g><g
           transform="translate(578.7461,188.7662)"
           id="g96"><path
             id="path98"
             style="fill:#211d1d;fill-opacity:1;fill-rule:nonzero;stroke:none"
             d="M 0,0 C 0.045,0.313 0.357,0.581 0.626,0.581 H 16.71 c 0.312,0 0.536,-0.268 0.491,-0.581 L 17.112,-0.759 C 17.067,-1.072 16.755,-1.34 16.441,-1.34 H 1.967 L 0.224,-13.671 h 12.509 c 0.314,0 0.537,-0.268 0.492,-0.581 l -0.089,-0.76 c -0.045,-0.312 -0.358,-0.581 -0.67,-0.581 H -0.044 L -1.921,-28.817 H 12.6 c 0.312,0 0.536,-0.268 0.491,-0.58 l -0.134,-0.715 c -0.045,-0.313 -0.312,-0.581 -0.625,-0.581 H -3.752 c -0.313,0 -0.537,0.268 -0.492,0.581 z" /></g><g
           transform="translate(598.1387,162.2281)"
           id="g100"><path
             id="path102"
             style="fill:#211d1d;fill-opacity:1;fill-rule:nonzero;stroke:none"
             d="m 0,0 0.536,0.536 c 0.313,0.401 0.67,0.446 0.939,0.089 0.357,-0.402 2.859,-3.351 6.477,-3.351 4.2,0 7.863,2.905 7.863,6.747 0,3.306 -2.725,4.87 -6.701,6.88 -3.887,1.966 -6.657,3.798 -6.657,7.908 0,4.021 2.904,8.757 10.008,8.757 3.931,0 6.567,-2.279 6.567,-2.279 0.134,-0.134 0.447,-0.402 0.045,-0.937 l -0.402,-0.538 c -0.268,-0.357 -0.581,-0.491 -0.983,-0.222 -0.133,0.089 -2.502,2.055 -5.495,2.055 -5.227,0 -7.64,-3.708 -7.64,-6.657 0,-3.128 2.368,-4.691 5.63,-6.256 4.69,-2.233 7.773,-4.244 7.773,-8.488 0,-5.271 -4.647,-8.846 -10.187,-8.846 -4.556,0 -7.282,3.127 -7.773,3.664 -0.224,0.223 -0.447,0.446 0,0.938" /></g><g
           transform="translate(621.6846,162.2281)"
           id="g104"><path
             id="path106"
             style="fill:#211d1d;fill-opacity:1;fill-rule:nonzero;stroke:none"
             d="m 0,0 0.536,0.536 c 0.313,0.401 0.67,0.446 0.938,0.089 0.357,-0.402 2.859,-3.351 6.478,-3.351 4.2,0 7.863,2.905 7.863,6.747 0,3.306 -2.724,4.87 -6.701,6.88 -3.886,1.966 -6.657,3.798 -6.657,7.908 0,4.021 2.904,8.757 10.008,8.757 3.931,0 6.567,-2.279 6.567,-2.279 0.135,-0.134 0.447,-0.402 0.045,-0.937 l -0.402,-0.538 c -0.268,-0.357 -0.58,-0.491 -0.983,-0.222 -0.134,0.089 -2.502,2.055 -5.496,2.055 -5.226,0 -7.639,-3.708 -7.639,-6.657 0,-3.128 2.368,-4.691 5.63,-6.256 4.691,-2.233 7.773,-4.244 7.773,-8.488 0,-5.271 -4.647,-8.846 -10.187,-8.846 -4.556,0 -7.282,3.127 -7.773,3.664 -0.224,0.223 -0.447,0.446 0,0.938" /></g><g
           transform="translate(588.1338,253.0797)"
           id="g108"><path
             id="path110"
             style="fill:#d6b038;fill-opacity:1;fill-rule:nonzero;stroke:none"
             d="m 0,0 h -12.45 v -12.368 l -10.901,-19.923 c -4.408,-8.127 1.476,-18.013 10.722,-18.014 l 6.403,-10e-4 6.405,10e-4 c 9.246,10e-4 15.13,9.887 10.721,18.014 L 0,-12.368 Z m -6.226,-18.759 9.629,-17.598 c 0.866,-1.595 0.326,-2.956 -0.072,-3.626 -0.398,-0.669 -1.338,-1.793 -3.153,-1.793 h -6.403 -6.403 c -1.815,0 -2.755,1.124 -3.153,1.793 -0.399,0.67 -0.938,2.031 -0.087,3.598 l 9.642,17.626" /></g><g
           transform="translate(589.4121,253.189)"
           id="g112"><path
             id="path114"
             style="fill:#d6b038;fill-opacity:1;fill-rule:nonzero;stroke:none"
             d="m 0,0 h -15.008 c -0.446,0 -0.807,-0.362 -0.807,-0.809 v -1.17 c 0,-0.446 0.361,-0.808 0.807,-0.808 H 0 c 0.446,0 0.809,0.362 0.809,0.808 v 1.17 C 0.809,-0.362 0.446,0 0,0" /></g><g
           transform="translate(585.3252,268.2896)"
           id="g116"><path
             id="path118"
             style="fill:#d6b038;fill-opacity:1;fill-rule:nonzero;stroke:none"
             d="m 0,0 c -2.564,0 -4.643,-2.078 -4.643,-4.643 0,-2.564 2.079,-4.642 4.643,-4.642 2.564,0 4.643,2.078 4.643,4.642 C 4.643,-2.078 2.564,0 0,0" /></g><g
           transform="translate(578.125,281.3082)"
           id="g120"><path
             id="path122"
             style="fill:#d6b038;fill-opacity:1;fill-rule:nonzero;stroke:none"
             d="m 0,0 c -1.806,0 -3.27,-1.464 -3.27,-3.27 0,-1.805 1.464,-3.269 3.27,-3.269 1.806,0 3.27,1.464 3.27,3.269 C 3.27,-1.464 1.806,0 0,0" /></g><g
           transform="translate(570.1406,295.3765)"
           id="g124"><path
             id="path126"
             style="fill:#d6b038;fill-opacity:1;fill-rule:nonzero;stroke:none"
             d="M 0,0 1.329,-1.325 8.003,5.367 6.674,6.692 Z" /></g><g
           transform="translate(567.2197,297.3043)"
           id="g128"><path
             id="path130"
             style="fill:#d6b038;fill-opacity:1;fill-rule:nonzero;stroke:none"
             d="m 0,0 c -0.162,0.163 -0.38,0.252 -0.611,0.252 h -0.001 c -0.232,0 -0.45,-0.091 -0.612,-0.253 -0.163,-0.163 -0.253,-0.381 -0.253,-0.612 0.001,-0.233 0.091,-0.45 0.254,-0.613 l 6.185,-6.168 c 0.169,-0.168 0.391,-0.252 0.612,-0.252 0.222,0 0.445,0.084 0.613,0.253 0.336,0.338 0.335,0.888 -0.001,1.225 z" /></g><g
           transform="translate(566.5947,294.5172)"
           id="g132"><path
             id="path134"
             style="fill:#d6b038;fill-opacity:1;fill-rule:nonzero;stroke:none"
             d="m 0,0 c -0.163,0.162 -0.38,0.252 -0.611,0.252 h -0.001 c -0.233,-0.001 -0.45,-0.091 -0.613,-0.254 -0.163,-0.163 -0.252,-0.381 -0.252,-0.612 0.001,-0.233 0.091,-0.449 0.254,-0.612 L 2.801,-5.239 C 2.964,-5.401 3.181,-5.49 3.412,-5.49 h 10e-4 c 0.233,0 0.449,0.09 0.612,0.253 0.162,0.164 0.252,0.381 0.252,0.612 -0.001,0.232 -0.09,0.45 -0.254,0.612 z" /></g><g
           transform="translate(576.0459,306.1529)"
           id="g136"><path
             id="path138"
             style="fill:#d6b038;fill-opacity:1;fill-rule:nonzero;stroke:none"
             d="m 0,0 c -0.163,0.162 -0.38,0.252 -0.611,0.252 h -0.001 c -0.233,0 -0.45,-0.09 -0.613,-0.254 -0.163,-0.163 -0.252,-0.38 -0.252,-0.612 0,-0.232 0.091,-0.449 0.254,-0.612 l 6.185,-6.168 c 0.169,-0.168 0.39,-0.252 0.611,-0.252 0.223,0 0.445,0.084 0.614,0.253 0.336,0.338 0.335,0.888 -0.002,1.225 z" /></g><g
           transform="translate(582.7754,302.692)"
           id="g140"><path
             id="path142"
             style="fill:#d6b038;fill-opacity:1;fill-rule:nonzero;stroke:none"
             d="m 0,0 -4.023,4.013 c -0.164,0.162 -0.38,0.252 -0.612,0.252 H -4.636 C -4.868,4.264 -5.085,4.174 -5.248,4.011 -5.41,3.848 -5.5,3.63 -5.5,3.398 -5.499,3.166 -5.409,2.949 -5.246,2.786 l 4.023,-4.013 c 0.169,-0.168 0.39,-0.252 0.612,-0.252 0.221,0 0.444,0.085 0.613,0.254 C 0.339,-0.887 0.338,-0.338 0,0" /></g><g
           transform="translate(576.1709,262.9898)"
           id="g144"><path
             id="path146"
             style="fill:#d6b038;fill-opacity:1;fill-rule:nonzero;stroke:none"
             d="M 0,0 C 0,0 -0.002,-0.001 -0.007,-0.004 -0.004,-0.002 0,0 0,0" /></g><g
           transform="translate(576.1641,262.9859)"
           id="g148"><path
             id="path150"
             style="fill:#d6b038;fill-opacity:1;fill-rule:nonzero;stroke:none"
             d="M 0,0 C 0,0 -0.001,-0.001 -0.002,-0.001 -0.002,-0.001 -0.001,0 0,0" /></g><g
           transform="translate(566.7373,281.4752)"
           id="g152"><path
             id="path154"
             style="fill:#d6b038;fill-opacity:1;fill-rule:nonzero;stroke:none"
             d="m 0,0 c 0,0 -8.974,-10.703 -0.657,-16.402 0.568,-0.39 1.263,-0.56 2.012,-0.56 0.396,0 0.807,0.048 1.221,0.136 -1.887,3.273 -2.761,7.041 -2.538,8.555 1.175,-6.72 5.649,-10.368 7.17,-11.433 1.811,0.991 2.162,1.183 2.217,1.214 -0.001,0 -2.234,0.37 -4.47,2.592 2.605,1.506 4.376,4.298 1.861,6.323 C -0.175,-3.948 0,0 0,0" /></g><g
           transform="translate(600.1084,275.6334)"
           id="g156"><path
             id="path158"
             style="fill:#d6b038;fill-opacity:1;fill-rule:nonzero;stroke:none"
             d="m 0,0 c 2.515,5.322 -0.561,8.567 -4.354,7.528 -3.83,4.877 -6.468,0.873 -7.732,-1.935 -2.292,-5.094 1.099,-9.45 3.462,-7.878 C -8.201,-4.894 -2.609,-5.522 0,0" /></g><g
           transform="translate(593.7842,278.3931)"
           id="g160"><path
             id="path162"
             style="fill:#d6b038;fill-opacity:1;fill-rule:nonzero;stroke:none"
             d="M 0,0 C 1.331,1.107 4.02,4.35 3.32,8.34 0.72,9.263 0.988,9.168 0.988,9.168 0.988,9.168 3.373,5.405 0,0" /></g><g
           transform="translate(593.7148,276.9029)"
           id="g164"><path
             id="path166"
             style="fill:#ffffff;fill-opacity:1;fill-rule:nonzero;stroke:none"
             d="M 0,0 C 1.445,0.953 4.471,5.754 4.218,9.798 1.735,11.003 2.827,10.473 2.827,10.473 2.827,10.473 3.951,4.999 0,0" /></g><g
           transform="translate(600.9199,299.7339)"
           id="g168"><path
             id="path170"
             style="fill:#d6b038;fill-opacity:1;fill-rule:nonzero;stroke:none"
             d="m 0,0 c 0.125,0.269 0.289,0.474 0.646,0.696 -6.834,4.309 -17.452,-1.1 -16.532,-8.375 0.429,-3.399 13.233,0.83 16.818,7.699 C 0.422,-0.042 0.141,-0.072 0,0" /></g><g
           transform="translate(583.1953,285.7369)"
           id="g172"><path
             id="path174"
             style="fill:#d6b038;fill-opacity:1;fill-rule:nonzero;stroke:none"
             d="M 0,0 C 0.007,-0.01 0.003,-0.004 0,0" /></g><g
           transform="translate(583.1953,285.7369)"
           id="g176"><path
             id="path178"
             style="fill:#d6b038;fill-opacity:1;fill-rule:nonzero;stroke:none"
             d="m 0,0 c 0,0 -0.001,0.001 -0.001,0.002 0,0 0,-0.001 0.001,-0.002" /></g><g
           transform="translate(580.2109,289.9547)"
           id="g180"><path
             id="path182"
             style="fill:#d6b038;fill-opacity:1;fill-rule:nonzero;stroke:none"
             d="m 0,0 c 1.694,0.028 3.37,-3.549 3.398,-3.592 0,0 -0.377,4.987 5.995,7.388 C 7.05,4.02 0.519,0.876 0,0" /></g><g
           transform="translate(598.7246,300.2398)"
           id="g184"><path
             id="path186"
             style="fill:#ffffff;fill-opacity:1;fill-rule:nonzero;stroke:none"
             d="M 0,0 C 0.147,-0.293 0.03,-0.648 -0.263,-0.796 -0.555,-0.942 -0.91,-0.825 -1.058,-0.533 -1.204,-0.24 -1.087,0.115 -0.795,0.263 -0.503,0.409 -0.146,0.292 0,0" /></g><g
           transform="translate(593.8242,294.7779)"
           id="g188"><path
             id="path190"
             style="fill:none;stroke:#ffffff;stroke-width:0.87900001;stroke-linecap:round;stroke-linejoin:miter;stroke-miterlimit:10;stroke-dasharray:none;stroke-opacity:1"
             d="M 0,0 C -1.007,1.049 -2.082,3.071 -2.037,4.171" /></g></g></g></g></svg>